<svg width="30" height="30" xmlns="http://www.w3.org/2000/svg">
  <g fill="#231F20" fill-rule="nonzero">
    <path d="M24.094 16.36c1.218.328 2.437.703 4.875.703.468 0 .89-.329.984-.75.094-.61-.328-1.125-.937-1.125-2.203 0-3.282-.282-4.407-.61a15.52 15.52 0 0 0-2.672-.562v-3.047c0-.328.329-.61.657-.563.562.094 1.031.235 1.5.375 1.218.328 2.437.703 4.875.703.468 0 .89-.328.984-.75.094-.609-.328-1.125-.937-1.125-2.203 0-3.282-.28-4.407-.609a15.52 15.52 0 0 0-2.672-.563V3.095A3.09 3.09 0 0 0 18.845 0h-7.172a3.09 3.09 0 0 0-3.094 3.094v6.375c-1.125-.094-1.875-.328-2.625-.516-1.219-.328-2.437-.703-4.875-.703-.469 0-.89.328-.984.75-.094.61.328 1.125.937 1.125 2.203 0 3.282.281 4.407.61.89.234 1.78.515 3.14.609v3.094a.57.57 0 0 1-.656.562c-.797-.094-1.406-.281-2.016-.469-1.218-.328-2.437-.703-4.875-.703-.468 0-.89.328-.984.75-.094.61.328 1.125.937 1.125 2.204 0 3.282.281 4.407.61.89.234 1.78.515 3.14.609v3.703c-1.125-.094-1.875-.328-2.625-.516-1.218-.328-2.437-.703-4.875-.703-.468 0-.89.328-.984.75-.094.61.328 1.125.937 1.125 2.204 0 3.282.282 4.407.61.75.234 1.546.422 2.671.562a.557.557 0 0 1 .47.563v5.859c0 .469.327.89.796.984.61.094 1.078-.375 1.078-.937v-5.344l4.781 4.172 4.782-4.172v5.344c0 .469.328.89.797.984.609.094 1.078-.375 1.078-.937v-7.5c.843.14 1.5.281 2.156.468 1.219.329 2.438.704 4.875.704.469 0 .89-.328.984-.75.094-.61-.328-1.125-.937-1.125-2.203 0-3.281-.282-4.406-.61a17.441 17.441 0 0 0-1.97-.468c-.421-.047-.702-.422-.702-.844v-3c.937.14 1.593.328 2.25.515zm-4.5 5.109l-4.36 3.843-4.359-3.843a1.18 1.18 0 0 1-.422-.938V9.234a.64.64 0 0 1 .656-.656c1.922-.094 3.094-.422 4.22-.75 1.265-.375 2.437-.703 4.78-.703v13.453c-.093.328-.234.656-.515.89zm.422-16.266c-2.578.047-3.938.422-5.25.797-1.172.328-2.297.656-4.313.703v-3.61c0-.655.563-1.218 1.219-1.218h7.125c.656 0 1.219.563 1.219 1.219v2.11z"/>
    <path d="M15.422 16.266c.234.375.656.609 1.125.609.656 0 1.172-.469 1.312-1.078v-.235c0-.75-.609-1.312-1.312-1.312-.75 0-1.313.61-1.313 1.313 0 .28.094.515.188.703zM15 11.39c0-.187-.047-.374-.14-.562-.188-.469-.657-.75-1.22-.75-.703 0-1.265.563-1.312 1.266v.047c0 .75.61 1.312 1.313 1.312.796 0 1.359-.61 1.359-1.312zM14.531 18.375c-.75 0-1.312.61-1.312 1.313 0 .28.094.562.234.796.235.328.61.563 1.078.563.656 0 1.219-.516 1.313-1.172v-.14c0-.75-.61-1.36-1.313-1.36z"/>
  </g>
</svg>
