<svg width="30" height="29" xmlns="http://www.w3.org/2000/svg">
  <g fill="#231F20" fill-rule="nonzero">
    <path d="M28.161 11.016c0-.514-.471-.943-.985-.857-.43.043-.73.471-.73.943-.042 5.872-4.414 10.673-10.115 11.444-.3.043-.514-.171-.514-.471v-1.586c0-.515.343-.9.857-.986 4.415-.772 7.801-4.672 7.801-9.301 0 0 0-.043-.043-.043-.428 0-.857.043-1.243.085-.3.043-.514-.214-.514-.514.257-2.4-1.243-4.672-1.286-4.8a.942.942 0 0 0-.9-.386c-.129.042-.472.128-1.157.514h-.043C18.089 1.886 15.474.6 15.345.514a.736.736 0 0 0-.728 0c-.13.043-2.53 1.243-3.772 4.115-.086.215-.386.343-.6.215-.43-.215-.686-.258-.772-.3-.343-.086-.686.085-.9.385-.086.129-1.8 2.786-1.2 5.358 0 0 0 .043-.043.043a8.54 8.54 0 0 0-1.8-.171s-.043 0-.043.043c0 4.629 3.343 8.487 7.758 9.301.471.086.857.514.857.986v2.014c0 .086 0 .086-.043.086-6-.386-10.801-5.4-10.844-11.487 0-.429-.3-.858-.729-.943-.514-.086-.986.343-.986.857 0 6.858 5.23 12.516 11.916 13.245a.785.785 0 0 1 .686.771v2.23c0 .428.3.857.729.9.514.085.986-.343.986-.858v-3s0-.043.043-.043c6.858-.472 12.301-6.258 12.301-13.245zm-5.829 1.672a7.888 7.888 0 0 1-5.358 4.972s-.043 0-.043-.043c.686-2.486 2.53-4.5 4.972-5.358.3-.086.515.171.429.429zM19.589 6.9c.428-.257.9-.086 1.071.386.386 1.029.643 2.4-.085 3.558 0 .042-.043.042-.043.085-.043.043-.043.086-.086.172-.3.128-.557.3-.814.428h-.043a11.567 11.567 0 0 0-.686-2.057 10.348 10.348 0 0 0-.815-1.415v-.042c.558-.558 1.072-.9 1.5-1.115zm-4.972-4.372c.214-.171.514-.171.771 0 .772.557 1.886 1.672 2.443 3.472l-.385.257-.515.386h-.043a3.003 3.003 0 0 0-.428-.343 6.594 6.594 0 0 0-1.115-.729.736.736 0 0 0-.728 0c-.043.043-.558.257-1.2.772a2.147 2.147 0 0 0-.344.3c-.128-.086-.257-.214-.385-.3l-.515-.386v-.043a6.85 6.85 0 0 1 2.444-3.386zM9.644 6.472c.043 0 .043 0 0 0 .258.086.515.258.858.472.128.086.257.171.428.257.129.086.257.172.429.3.343.214.429.686.214 1.029a4.434 4.434 0 0 0-.471.9 9.983 9.983 0 0 0-.472 1.2c-.128.429-.643.643-1.071.472h-.043c-.043-.043-.043-.129-.086-.172 0-.043-.043-.043-.043-.085-.9-1.5-.214-3.387.257-4.373zm-2.143 5.616c2.186.6 4.03 2.1 4.972 4.114a.679.679 0 0 1-.9.9c-1.972-.942-3.515-2.786-4.072-5.014-.043.042 0 0 0 0zm7.673 5.743c-.043 0-.129-.043-.215-.043h-.128a9.412 9.412 0 0 0-2.915-5.186v-.043c.429-3.172 2.229-4.715 3.043-5.272h.043c.815.557 2.615 2.057 3.044 5.272v.043a9.584 9.584 0 0 0-2.872 5.23zM29.362 18.517a.831.831 0 0 0-1.158.3c-1.586 2.658-3.9 4.8-6.686 6.13a.859.859 0 0 0-.386 1.157c.128.3.471.471.771.471.129 0 .258-.042.386-.085a17.514 17.514 0 0 0 7.416-6.816.958.958 0 0 0-.343-1.157zM7.458 24.604a15.272 15.272 0 0 1-5.443-5.015c-.258-.386-.815-.515-1.2-.215-.386.258-.515.772-.258 1.158 1.543 2.314 3.644 4.2 6.044 5.53.129.085.257.085.429.085.3 0 .6-.172.771-.429a.806.806 0 0 0-.343-1.114z"/>
  </g>
</svg>
