<?xml version="1.0" encoding="UTF-8" standalone="no"?>
<svg width="297px" height="411px" viewBox="0 0 297 411" version="1.1" xmlns="http://www.w3.org/2000/svg" xmlns:xlink="http://www.w3.org/1999/xlink">
    <!-- Generator: Sketch 49.3 (51167) - http://www.bohemiancoding.com/sketch -->
    <title>NewImage-Logo-White</title>
    <desc>Created with Sketch.</desc>
    <defs></defs>
    <g id="Desktop" stroke="none" stroke-width="1" fill="none" fill-rule="evenodd" opacity="0.133687034">
        <g id="About" transform="translate(-1143.000000, -134.000000)" fill="#FFFFFF" fill-rule="nonzero">
            <g id="NewImage-Logo-White" transform="translate(1269.500000, 301.500000) rotate(-26.000000) translate(-1269.500000, -301.500000) translate(1061.000000, 116.000000)">
                <path d="M414.280813,347.173775 L346.62637,308.768248 L379.057055,299.319269 L399.229251,310.749486 C404.970569,313.949946 410.401545,305.415385 404.349886,301.910118 C402.643007,300.995701 405.591252,302.51973 384.177689,290.479902 C384.022518,290.479902 384.022518,290.327499 384.022518,290.327499 L382.781153,289.565484 L249.023973,58.0654997 C249.023973,32.0046062 249.179144,36.7290956 248.868802,35.2050668 C247.782607,28.9565484 238.627533,30.0233686 238.627533,35.9670812 L238.627533,58.8275142 C238.627533,58.8275142 238.627533,58.8275142 238.627533,58.8275142 L213.955385,81.84035 L213.955385,5.02929525 C213.955385,-1.67643175 203.558946,-1.67643175 203.558946,5.02929525 L203.558946,81.6879472 L179.507481,59.2847228 C179.507481,58.8275142 179.35231,58.5227084 179.041969,58.0654997 C179.041969,32.0046062 179.197139,36.7290956 178.886798,35.2050668 C177.800603,28.9565484 168.645529,30.0233686 168.645529,35.9670812 L168.645529,58.8275142 C168.645529,58.9799171 168.645529,58.9799171 168.645529,59.13232 L168.645529,59.8943344 L33.1814713,290.022693 C11.4575675,302.367327 14.2506408,300.690895 12.5437626,301.757715 C7.57829891,304.65337 10.526543,312.425917 16.2678604,311.054291 C17.8195679,310.749486 15.6471775,311.816306 37.8365936,299.166866 C37.8365936,299.166866 37.8365936,299.166866 37.8365936,299.166866 L70.4224493,308.615845 L2.61283517,347.021373 C-3.28365302,350.374236 1.83698146,359.213603 7.73346965,355.86074 L75.3879131,317.455213 L67.4742052,349.764624 C46.2158136,361.804452 49.008887,360.280424 47.3020088,361.194841 C41.7158621,364.395302 46.2158136,373.539475 52.4226433,370.034208 L72.439669,358.756395 C72.5948397,358.756395 72.7500105,358.603992 72.7500105,358.603992 L73.5258642,358.146783 L342.902272,358.146783 L364.005493,370.186611 C369.901981,373.539475 375.177786,364.700107 369.126127,361.347244 C367.419249,360.432827 370.367493,362.109258 348.953931,349.917027 C348.953931,349.917027 348.953931,349.917027 348.953931,349.917027 L341.040223,317.455213 L408.849837,355.86074 C415.056667,359.366006 420.177301,350.526639 414.280813,347.173775 Z M175.007529,184.864701 L203.558946,211.535206 L203.558946,233.328819 L184.628115,244.149424 L146.766454,233.176416 L175.007529,184.864701 Z M242.351631,184.864701 L269.972023,232.871611 L232.110362,243.844618 L213.800215,233.481222 L213.800215,211.382804 L242.351631,184.864701 Z M208.369239,242.168187 L226.989728,252.683986 L236.144802,290.327499 L180.438505,290.327499 L189.593579,252.683986 L208.369239,242.168187 Z M252.282559,248.721511 L275.713341,241.863381 C276.644365,241.558575 277.57539,241.710978 278.351243,242.168187 L291.851098,249.788331 C294.489,251.31236 294.023488,255.122432 291.075244,255.884446 L267.644462,262.742576 C266.713438,263.047382 265.782413,262.894979 265.00656,262.437771 L251.506705,254.817626 C248.868802,253.293597 249.334315,249.483525 252.282559,248.721511 Z M281.609829,232.261999 L248.868802,175.263319 L248.868802,157.432182 L297.126903,240.948964 L281.609829,232.261999 Z M238.472363,157.736988 L238.472363,172.977276 C238.472363,173.891693 238.162021,174.806111 237.386167,175.415722 L219.696703,192.027637 C217.524313,194.008874 213.955385,192.484846 213.955385,189.589191 L213.955385,174.348902 C213.955385,173.434485 214.265727,172.520067 215.041581,171.910456 L232.731045,155.298541 C234.903436,153.317304 238.472363,154.841333 238.472363,157.736988 Z M197.662458,192.027637 L179.972993,175.415722 C179.35231,174.806111 178.886798,173.891693 178.886798,172.977276 L178.886798,157.736988 C178.886798,154.841333 182.455725,153.317304 184.628115,155.298541 L202.31758,171.910456 C202.938263,172.520067 203.403775,173.434485 203.403775,174.348902 L203.403775,189.589191 C203.558946,192.484846 199.990019,194.008874 197.662458,192.027637 Z M168.490358,175.263319 L135.128649,232.261999 L120.232257,240.644158 L168.490358,157.432182 L168.490358,175.263319 Z M141.025137,241.863381 L164.455919,248.721511 C167.404163,249.635928 167.869675,253.446 165.231773,254.817626 L151.731918,262.437771 C150.956064,262.894979 150.02504,263.047382 149.094015,262.742576 L125.663233,255.884446 C122.714989,254.970029 122.249477,251.159957 124.88738,249.788331 L138.387234,242.168187 C139.163088,241.710978 140.094112,241.558575 141.025137,241.863381 Z M175.473042,267.314663 L169.731724,290.632305 C169.576553,291.546722 168.95587,292.308736 168.180017,292.765945 L154.680162,300.386089 C152.04226,301.910118 148.938845,299.624075 149.714698,296.72842 L155.456016,273.410778 C155.611187,272.496361 156.23187,271.734347 157.007723,271.277138 L170.507578,263.656994 C172.99031,262.132965 176.248895,264.419008 175.473042,267.314663 Z M175.317871,300.538492 L241.420607,300.538492 L257.248022,309.530262 L159.490455,309.530262 L175.317871,300.538492 Z M247.006753,290.784707 L241.265436,267.467066 C240.489582,264.571411 243.748168,262.285368 246.2309,263.809396 L259.730754,271.429541 C260.506608,271.886749 261.127291,272.648764 261.282462,273.563181 L267.023779,296.880823 C267.799633,299.776478 264.541047,302.062521 262.058315,300.538492 L248.558461,292.918348 C247.782607,292.461139 247.161924,291.699125 247.006753,290.784707 Z M285.489097,274.172793 C282.851195,272.648764 283.316707,268.838692 286.264951,268.076677 L311.09227,260.761339 L314.040514,262.437771 L325.83349,269.143498 C328.471393,270.667526 328.005881,274.477599 325.057637,275.239613 L301.626855,282.097743 C300.69583,282.402549 299.764806,282.250146 298.988952,281.792937 L285.489097,274.172793 Z M315.437051,251.464763 L314.816368,251.159957 L248.868802,136.857792 L248.868802,118.721849 L331.729978,260.608936 L315.437051,251.464763 Z M237.386167,137.010195 L219.696703,153.469707 C217.524313,155.450944 213.955385,153.926915 213.955385,151.031261 L213.955385,135.790972 C213.955385,134.876555 214.265727,133.962137 215.041581,133.352526 L232.731045,116.740611 C234.903436,114.759374 238.472363,116.283402 238.472363,119.179057 L238.472363,134.419346 C238.472363,135.486166 238.162021,136.248181 237.386167,137.010195 Z M197.662458,153.469707 L180.438505,137.467404 C179.972993,136.400583 179.35231,134.876555 178.731627,133.657331 L178.731627,119.179057 C178.731627,116.283402 182.300554,114.759374 184.472945,116.740611 L202.162409,133.352526 C202.783092,133.962137 203.248604,134.876555 203.248604,135.790972 L203.248604,151.031261 C203.558946,154.079318 199.990019,155.603347 197.662458,153.469707 Z M168.490358,118.569446 L168.490358,136.705389 L102.542793,250.550345 L102.232451,250.702748 L85.3188405,260.30413 L168.490358,118.569446 Z M107.042744,261.066145 L130.473526,267.924274 C133.42177,268.838692 133.887283,272.648764 131.24938,274.02039 L117.749526,281.640534 C116.973672,282.097743 116.042647,282.250146 115.111623,281.94534 L91.680841,275.08721 C88.7325969,274.172793 88.2670846,270.362721 90.9049872,268.991095 L104.404842,261.37095 C105.180695,260.913742 106.266891,260.913742 107.042744,261.066145 Z M141.490649,286.669829 L135.749332,309.987471 C135.594161,310.901888 134.973478,311.663903 134.197624,312.121112 L120.69777,319.741256 C118.059867,321.265285 114.956452,318.979241 115.732306,316.083587 L121.473623,292.765945 C121.628794,291.851528 122.249477,291.089513 123.025331,290.632305 L136.525185,283.01216 C139.163088,281.488131 142.266503,283.774175 141.490649,286.669829 Z M141.490649,319.741256 L275.092658,319.741256 L279.437439,322.179702 L291.230415,328.885429 L125.197721,328.885429 L141.490649,319.741256 Z M280.989146,309.987471 L275.247828,286.669829 C274.471975,283.774175 277.73056,281.488131 280.213292,283.01216 L293.713147,290.632305 C294.489,291.089513 295.109683,291.851528 295.264854,292.765945 L301.006172,316.083587 C301.782025,318.979241 298.52344,321.265285 296.040708,319.741256 L282.540853,312.121112 C281.765,311.663903 281.144317,310.901888 280.989146,309.987471 Z M320.092173,287.279441 L343.522955,280.421311 C344.453979,280.116505 345.385004,280.268908 346.160857,280.726117 L359.660712,288.346261 C362.298615,289.87029 361.833102,293.680362 358.884858,294.442377 L335.454076,301.300507 C334.523052,301.605312 333.592027,301.452909 332.816174,300.995701 L319.316319,293.375556 C316.833587,291.851528 317.299099,288.041455 320.092173,287.279441 Z M349.574614,270.819929 L249.023973,98.4522647 L249.023973,78.7922923 L365.091688,279.659297 L349.574614,270.819929 Z M238.472363,80.7735298 L238.472363,95.8614156 C238.472363,96.7758329 238.162021,97.6902502 237.386167,98.2998618 L219.696703,114.911776 C217.524313,116.893014 213.955385,115.368985 213.955385,112.47333 L213.955385,97.3854445 C213.955385,96.4710271 214.265727,95.5566098 215.041581,94.9469983 L232.731045,78.3350836 C234.903436,76.3538461 238.472363,77.877875 238.472363,80.7735298 Z M197.662458,114.911776 L179.972993,98.4522647 C179.35231,97.8426531 178.886798,96.9282358 178.886798,96.0138185 L178.886798,80.7735298 C178.886798,77.877875 182.455725,76.3538461 184.628115,78.3350836 L202.31758,94.7945954 C202.938263,95.4042069 203.403775,96.3186243 203.403775,97.2330416 L203.403775,112.47333 C203.558946,115.521388 199.990019,117.045417 197.662458,114.911776 Z M168.490358,98.1474589 L67.3190345,270.667526 L51.0261066,279.964102 L168.645529,80.1639183 L168.645529,98.1474589 L168.490358,98.1474589 Z M57.8536192,294.442377 C54.9053751,293.527959 54.4398629,289.717887 57.0777655,288.346261 L71.0431323,280.421311 L71.818986,279.964102 L96.6463047,287.279441 C99.5945488,288.193858 100.060061,292.00393 97.4221584,293.375556 L84.0774746,300.995701 C83.3016209,301.452909 82.3705964,301.605312 81.439572,301.300507 L57.8536192,294.442377 Z M107.508257,305.872593 L101.766939,329.190235 C101.611768,330.104652 100.991085,330.866667 100.215232,331.323875 L86.7153772,338.94402 C84.0774746,340.468048 80.9740598,338.182005 81.7499135,335.28635 L87.4912309,311.968709 C87.6464017,311.054291 88.2670846,310.292277 89.0429383,309.835068 L102.542793,302.214924 C105.180695,300.690895 108.28411,302.976938 107.508257,305.872593 Z M105.646208,340.01084 L107.353086,339.096422 L309.230221,339.096422 L325.212807,348.088193 L91.680841,348.088193 L105.646208,340.01084 Z M329.86793,338.94402 L316.523246,331.323875 C315.747392,330.866667 315.126709,330.104652 314.971538,329.190235 L309.230221,305.872593 C308.454367,302.976938 311.712953,300.690895 314.195685,302.214924 L327.540368,309.835068 C328.316222,310.292277 328.936905,311.054291 329.092076,311.968709 L334.833393,335.28635 C335.609247,338.182005 332.505832,340.468048 329.86793,338.94402 Z" id="Shape"></path>
            </g>
        </g>
    </g>
</svg>