<svg width="31" height="28" xmlns="http://www.w3.org/2000/svg"><path d="M29.942 25.366l-4.869-2.764 2.334-.68 1.452.823c.413.23.804-.384.368-.636-.122-.066.09.043-1.451-.823-.011 0-.011-.01-.011-.01l-.09-.056L18.05 4.56c0-1.875.012-1.535-.01-1.645-.079-.45-.738-.373-.738.055v1.645l-1.775 1.656V.744c0-.483-.748-.483-.748 0V6.26l-1.731-1.613c0-.033-.011-.055-.034-.087 0-1.876.011-1.536-.01-1.646-.08-.45-.738-.373-.738.055v1.722L2.517 21.253c-1.564.889-1.363.768-1.486.845-.357.208-.145.767.268.669.112-.022-.044.055 1.553-.856l2.345.68-4.88 2.764c-.425.241-.056.877.368.636l4.869-2.764-.57 2.325c-1.53.867-1.328.757-1.451.823-.402.23-.078.888.368.636l1.44-.811c.012 0 .023-.011.023-.011l.056-.033h19.385l1.519.866c.424.241.804-.395.369-.636-.123-.066.089.055-1.452-.823l-.57-2.336 4.88 2.764c.447.252.815-.384.391-.625zm-17.22-11.68l2.056 1.919v1.568l-1.363.779-2.724-.79 2.032-3.476zm4.847 0l1.988 3.454-2.725.79-1.317-.746v-1.59l2.054-1.908zm-2.445 4.123l1.34.757.659 2.71h-4.01l.66-2.71 1.35-.757zm3.16.472l1.686-.494a.229.229 0 0 1 .19.022l.971.549c.19.11.157.384-.055.438l-1.687.494a.229.229 0 0 1-.19-.022l-.97-.548a.237.237 0 0 1 .055-.44zm2.11-1.185l-2.356-4.101V11.71l3.473 6.01-1.117-.625zm-3.104-5.363v1.097a.216.216 0 0 1-.078.176L15.939 14.2c-.156.143-.413.033-.413-.175v-1.097c0-.066.022-.132.078-.176l1.273-1.195c.156-.143.413-.033.413.175zm-2.937 2.468l-1.273-1.195a.257.257 0 0 1-.078-.176v-1.097c0-.208.257-.318.413-.175l1.273 1.195c.045.044.078.11.078.176v1.097c.012.208-.245.318-.413.175zm-2.1-1.206l-2.4 4.101-1.072.604 3.473-5.989v1.284zm-1.976 4.792l1.687.494c.212.066.245.34.055.439l-.971.548a.229.229 0 0 1-.19.022l-1.686-.494c-.212-.065-.246-.34-.056-.438l.972-.549a.229.229 0 0 1 .19-.022zm2.48 1.832l-.414 1.678a.227.227 0 0 1-.111.154l-.972.548c-.19.11-.413-.055-.357-.263l.413-1.678a.227.227 0 0 1 .112-.154l.971-.548c.179-.11.413.055.357.263zm-.012 2.39h4.757l1.14.648h-7.036l1.14-.647zm5.16-.701l-.414-1.678c-.056-.208.179-.373.357-.263l.972.548c.056.033.1.088.112.154l.413 1.678c.056.208-.179.373-.358.263l-.971-.548a.227.227 0 0 1-.112-.154zm2.769-1.195a.237.237 0 0 1 .055-.44l1.787-.526.212.121.849.483c.19.11.156.383-.056.438l-1.686.494a.229.229 0 0 1-.19-.022l-.971-.548zm2.155-1.635l-.045-.022-4.746-8.225V8.926l5.963 10.21-1.172-.658zm-5.617-8.236l-1.273 1.184c-.156.143-.413.033-.413-.175v-1.097c0-.066.022-.132.078-.175l1.273-1.196c.156-.143.413-.033.413.176v1.096a.238.238 0 0 1-.078.187zm-2.859 1.184l-1.24-1.151c-.033-.077-.077-.187-.122-.275V8.96c0-.209.257-.319.413-.176l1.273 1.196c.045.043.078.11.078.175v1.097c.023.22-.234.329-.402.175zm-2.1-2.511v1.305l-4.745 8.193-.022.01-1.217.691 5.985-10.2zM7.833 19.169l1.686.494c.212.066.246.34.056.439l-.972.548a.229.229 0 0 1-.19.022l-1.686-.494c-.212-.065-.245-.34-.055-.438l.971-.549a.287.287 0 0 1 .19-.022zm2.479 1.843l-.413 1.678a.227.227 0 0 1-.112.153l-.971.549c-.19.11-.414-.055-.358-.263l.413-1.678a.227.227 0 0 1 .112-.154l.972-.548c.19-.11.413.054.357.263zm0 2.38h9.614l.313.175.849.483H9.138l1.173-.658zm10.039-.702l-.413-1.678c-.056-.209.178-.373.357-.263l.971.548c.056.033.101.088.112.154l.413 1.678c.056.208-.178.373-.357.263l-.972-.549a.227.227 0 0 1-.111-.153zm2.814-1.634l1.686-.494a.229.229 0 0 1 .19.022l.971.549c.19.11.157.383-.055.438l-1.687.494a.229.229 0 0 1-.19-.022l-.971-.549c-.179-.11-.145-.383.056-.438zm2.122-1.185L18.049 7.467V6.052l8.353 14.455-1.116-.636zM17.29 6.195V7.28a.216.216 0 0 1-.078.176l-1.273 1.195c-.156.143-.413.033-.413-.175V7.39c0-.066.022-.131.078-.175l1.273-1.196c.156-.142.413-.033.413.176zM14.353 8.65L13.08 7.467a.257.257 0 0 1-.078-.176V6.195c0-.209.257-.318.413-.176l1.273 1.185c.045.044.078.11.078.175v1.097c.012.22-.245.329-.413.175zm-2.1-1.206L4.974 19.86l-1.172.67 8.464-14.38v1.295h-.011zM4.293 21.571c-.212-.066-.246-.34-.056-.438l1.005-.57.056-.034 1.787.527c.212.066.245.34.056.438l-.96.549a.229.229 0 0 1-.19.022l-1.698-.494zm3.573.823l-.413 1.678a.227.227 0 0 1-.111.153l-.972.549c-.19.11-.413-.055-.357-.263l.413-1.679a.227.227 0 0 1 .112-.153l.971-.548c.19-.11.413.054.357.263zm-.134 2.457l.123-.066h14.528l1.15.647H6.726l1.005-.581zm16.136-.077l-.96-.549a.227.227 0 0 1-.112-.153l-.413-1.678c-.056-.209.179-.373.358-.263l.96.548c.056.033.1.088.112.153l.413 1.679c.056.208-.168.372-.358.263z" fill="#000" fill-rule="nonzero"/></svg>
