<svg width="30" height="29" xmlns="http://www.w3.org/2000/svg">
  <g fill="#231F20" fill-rule="nonzero">
    <path d="M24.771 14.772V7.59a.973.973 0 0 0-.773-.954c-.59-.091-1.045.364-1.045.909v7.227c0 1.09-.5 2.09-1.363 2.727l-4.818 3.681a4.116 4.116 0 0 1-1.182.591v-1.363c0-.546.273-1.091.727-1.41l4.227-3.226a.949.949 0 0 0 .364-.728V2.727a.973.973 0 0 0-.773-.954c-.59-.091-1.045.363-1.045.909v1.454l-.591.455-2.136 1.59a.492.492 0 0 1-.773-.409V1a.973.973 0 0 0-.773-.955c-.59-.09-1.045.364-1.045.91v3.954c0 .727-.864 1.182-1.455.727l-1.409-1.045-.59-.455v-1.5c0-.318-.182-.636-.455-.818-.682-.318-1.364.136-1.364.818v12.408c0 .273.137.546.364.728l4 3.045c.59.454.954 1.182.954 1.909v1.045a4.116 4.116 0 0 1-1.181-.59l-4.818-3.682a3.423 3.423 0 0 1-1.364-2.727V7.59a.973.973 0 0 0-.773-.954c-.59-.091-1.045.364-1.045.909v7.227c0 1.636.773 3.181 2.09 4.181l4.819 3.682c.681.5 1.454.863 2.272 1v3.545c0 .455.318.864.773.955.59.09 1.045-.364 1.045-.91v-3.59c.818-.137 1.591-.5 2.273-1l4.818-3.682a5.343 5.343 0 0 0 2.045-4.181zM15.59 9.818c0-.5.227-.91.59-1.228l2.864-2.181v2.227c0 .454-.227.863-.545 1.136l-.046.046-2.863 2.181V9.818zm.09 4.408l3.364-2.545v2.364c0 .363-.182.727-.5.954l-3 2.273v-2.818c.046-.137.091-.182.137-.228zm-1.908 3l-3.454-2.636v-2.454c0-.182.227-.319.363-.182l3.09 2.363v2.91zm0-7.408v2.181l-2.864-2.181-.59-.455V6.909c0-.182.227-.319.363-.182l3 2.272c.045.046.09.137.09.182v.637zM10.454 25.044l-5.273-4a7.492 7.492 0 0 1-2.954-5.954c0-.5-.409-.91-.909-.91s-.909.41-.909.91c0 2.909 1.364 5.681 3.682 7.409l5.272 4a.873.873 0 0 0 .545.181.949.949 0 0 0 .728-.364c.318-.409.227-1-.182-1.272zM28.68 14.135c-.5 0-.91.41-.91.91a7.492 7.492 0 0 1-2.953 5.954l-5.273 4.045c-.409.318-.454.863-.182 1.272a.949.949 0 0 0 .728.364.873.873 0 0 0 .545-.182l5.272-4.045c2.318-1.773 3.682-4.545 3.682-7.409 0-.5-.41-.909-.909-.909z"/>
  </g>
</svg>
